<svg width="8" height="15" viewBox="0 0 8 15" fill="none" xmlns="http://www.w3.org/2000/svg">
<path d="M1.74219 2.90215V4.95653H0V7.5H1.74219V15H5.26226V7.5H7.66222C7.81333 6.69565 7.91108 5.8478 7.96441 4.95653H5.29774V3.22826C5.29774 3.09785 5.37776 2.96197 5.53776 2.82062C5.69776 2.67935 5.87552 2.60868 6.07107 2.60868H8V0H5.36892C4.67559 0 4.08002 0.0923826 3.57335 0.277147C3.06668 0.462 2.70226 0.668471 2.48003 0.896735C2.25781 1.125 2.08885 1.40215 1.96441 1.72826C1.83997 2.05438 1.76887 2.28803 1.75998 2.42938C1.75109 2.57065 1.74219 2.72824 1.74219 2.90215Z" fill="#A6A6A6"/>
</svg>
