<svg width="15" height="15" viewBox="0 0 15 15" fill="none" xmlns="http://www.w3.org/2000/svg">
<path fill-rule="evenodd" clip-rule="evenodd" d="M14.9024 11.5767C14.6696 12.1524 14.1224 12.4217 13.811 12.5482C13.5708 12.6438 13.3236 12.7209 13.0717 12.7789L13.0553 12.8417C12.9904 13.117 12.8349 13.3625 12.6138 13.5389C12.3827 13.723 12.0935 13.8187 11.7981 13.8089H11.7874L11.7653 13.8082C11.6084 13.8015 11.4525 13.7803 11.2995 13.7446C11.1402 13.7097 10.9776 13.6917 10.8145 13.691C10.7217 13.691 10.6288 13.6982 10.5338 13.7124C10.346 13.7708 10.173 13.869 10.0267 14.0003C9.36859 14.6013 8.52177 14.9544 7.63167 14.9989L7.60667 15.0003H7.58095C7.55381 15.0003 7.52238 15.0003 7.48952 14.9989C7.46525 14.9998 7.44096 15.0003 7.41667 15.0003H7.39238L7.36881 14.9989C6.47839 14.9548 5.6312 14.6017 4.97309 14.0003C4.82669 13.8696 4.65402 13.7717 4.46666 13.7132C4.3738 13.6989 4.28094 13.6917 4.18808 13.6917C4.02808 13.6932 3.8688 13.7132 3.71165 13.7489C3.56879 13.7839 3.42308 13.806 3.27594 13.816C2.96661 13.8424 2.65853 13.7528 2.41165 13.5646C2.17801 13.3871 2.01296 13.1342 1.9445 12.8489C1.93864 12.8258 1.93293 12.8027 1.92736 12.7796C1.6754 12.722 1.42824 12.6451 1.18807 12.5496C0.876641 12.4217 0.330925 12.1524 0.0987813 11.5796C0.0429198 11.4423 0.0100974 11.2968 0.00163806 11.1489V11.1403C-0.0133096 10.8494 0.0744164 10.5624 0.249496 10.3296C0.427354 10.0939 0.691641 9.921 1.00093 9.86314C1.54617 9.75155 2.03071 9.44184 2.36093 8.99385L2.37236 8.97885L2.38379 8.96457C2.53879 8.77314 2.67665 8.56457 2.79308 8.34242C2.71702 8.31749 2.64197 8.28961 2.56808 8.25885C2.32514 8.1593 2.09818 8.02452 1.8945 7.85885C1.67664 7.67599 1.21879 7.19742 1.34807 6.47384L1.3645 6.38384L1.39593 6.29813C1.50979 5.98142 1.71856 5.70754 1.99379 5.51384C2.27368 5.31718 2.60973 5.21644 2.95165 5.2267C2.93236 4.46455 3.01594 3.70169 3.20165 2.9624L3.22022 2.8874L3.24951 2.81597C3.58671 1.98677 4.15806 1.2737 4.8938 0.763822C5.6211 0.260898 6.48602 -0.00503926 7.37024 0.00239039L7.61595 0.000247506C8.50369 -0.00928016 9.37258 0.256477 10.1031 0.760965C10.8397 1.27064 11.412 1.98369 11.7503 2.81312L11.7795 2.88454L11.7988 2.96026C11.9834 3.69794 12.0673 4.45722 12.0481 5.21741H12.0538C12.2545 5.21741 12.4517 5.25527 12.636 5.32527C12.8988 5.41098 13.1288 5.5667 13.3038 5.76956C13.4988 5.99527 13.6203 6.26956 13.6617 6.55599L13.6717 6.62242L13.6724 6.68956C13.6874 7.49671 13.0653 7.99171 12.4295 8.25957L12.4217 8.26314C12.3495 8.29238 12.2763 8.3193 12.2024 8.34385C12.381 8.691 12.6167 8.99671 12.896 9.24671C13.236 9.55028 13.6317 9.76314 14.0503 9.87386C14.3388 9.941 14.5846 10.1096 14.7517 10.3331C14.9296 10.5703 15.0124 10.8574 14.9981 11.1417V11.146C14.9901 11.2939 14.9577 11.4394 14.9024 11.5767ZM13.9081 11.1753C13.9196 11.1471 13.9264 11.1171 13.9281 11.0867C13.9303 11.0468 13.9184 11.0074 13.8945 10.9753C13.8715 10.9442 13.8376 10.923 13.7995 10.916C13.7173 10.8947 13.6359 10.8707 13.5553 10.8439L13.5524 10.8424C13.3449 10.7738 13.1437 10.6875 12.951 10.5846C12.6743 10.4362 12.4163 10.2554 12.1824 10.046C11.7084 9.61969 11.3371 9.09144 11.0967 8.50099L11.0931 8.49242C11.0401 8.40019 11.007 8.29792 10.9958 8.19214C10.9846 8.08636 10.9956 7.97941 11.0281 7.87814C11.0808 7.7574 11.1683 7.65517 11.2795 7.58456L11.3153 7.56099C11.481 7.45599 11.6781 7.38956 11.8324 7.33742L11.861 7.32813L11.8681 7.32599L11.876 7.32313C11.9223 7.30738 11.9683 7.29046 12.0138 7.27242L12.0324 7.26456L12.0453 7.25885H12.0467C12.1273 7.22347 12.2056 7.18291 12.281 7.13742C12.5431 6.9767 12.6031 6.82099 12.601 6.70885C12.5886 6.62098 12.5514 6.53847 12.4938 6.47099C12.4378 6.40534 12.363 6.35847 12.2795 6.3367L12.2753 6.33527C12.1789 6.29439 12.0733 6.28008 11.9695 6.29384C11.927 6.3007 11.8857 6.31345 11.8467 6.3317C11.7869 6.36371 11.7251 6.39186 11.6617 6.41599L11.6545 6.41884C11.617 6.43334 11.5789 6.44621 11.5403 6.45742L11.536 6.45813C11.4367 6.4869 11.3347 6.50556 11.2317 6.51384C11.107 6.51703 10.9855 6.47375 10.891 6.39242L10.911 6.02813L10.9138 5.98456C11.0377 5.0619 10.9853 4.12411 10.7595 3.22097C10.5006 2.58383 10.0618 2.03582 9.49667 1.64383C8.94752 1.26437 8.29413 1.06471 7.62667 1.07239L7.36809 1.07382C6.70116 1.06668 6.04848 1.26685 5.50023 1.64668C4.93608 2.03868 4.49827 2.58645 4.24023 3.22312C4.01472 4.12483 3.96213 5.06111 4.08523 5.98241C4.0938 6.11884 4.10165 6.25599 4.1088 6.39242C4.00376 6.47964 3.86933 6.52334 3.73308 6.51456C3.64065 6.51029 3.54882 6.49738 3.45879 6.47599L3.45379 6.47527C3.32396 6.44402 3.19883 6.39574 3.08165 6.3317C3.03241 6.30817 2.97836 6.29643 2.92379 6.29741C2.81112 6.29295 2.70012 6.32584 2.60808 6.39099C2.51345 6.45822 2.44186 6.55301 2.40308 6.66242C2.37165 6.83956 2.50093 6.98742 2.66236 7.09885L2.70522 7.12742C2.79419 7.18419 2.88815 7.23272 2.98594 7.27242C3.04549 7.29721 3.10628 7.31891 3.16808 7.33742C3.34818 7.39295 3.52161 7.46817 3.68522 7.56171C3.6988 7.56956 3.71094 7.57813 3.7238 7.58671C3.83349 7.65712 3.91977 7.75856 3.97165 7.87814C4.00335 7.97981 4.01388 8.0869 4.00258 8.1928C3.99127 8.2987 3.95838 8.40116 3.90594 8.49385L3.9038 8.50099C3.72761 8.91017 3.49617 9.29326 3.21594 9.63957C2.89872 10.0622 2.48736 10.4051 2.0145 10.641C1.75736 10.7681 1.48379 10.861 1.20021 10.916C1.16219 10.923 1.12824 10.9442 1.10521 10.9753C1.08112 11.0073 1.06899 11.0467 1.07093 11.0867C1.07279 11.1174 1.07979 11.1476 1.09164 11.176C1.13527 11.2695 1.2056 11.3481 1.29379 11.4017C1.43664 11.5003 1.64664 11.5903 1.92022 11.6703C2.00165 11.6939 2.08879 11.7167 2.18165 11.7389C2.34736 11.7782 2.53165 11.8146 2.73165 11.8474C2.82165 11.8617 2.86022 12.0189 2.91236 12.2739C2.93308 12.381 2.95736 12.4867 2.98522 12.5917C2.9947 12.6394 3.02108 12.682 3.05951 12.7117C3.09736 12.7403 3.14451 12.7539 3.19022 12.7474C3.28308 12.7424 3.37379 12.7289 3.46379 12.7067C3.69993 12.6517 3.94135 12.6225 4.1838 12.6196C4.35737 12.6196 4.53166 12.6353 4.70308 12.6667C5.06903 12.7661 5.40662 12.9498 5.6888 13.2032C6.16324 13.6393 6.77517 13.896 7.41881 13.9289C7.44024 13.9289 7.46167 13.9282 7.4831 13.926C7.50952 13.9282 7.54452 13.9289 7.58095 13.9289C8.22459 13.896 8.83652 13.6393 9.31096 13.2032C9.59323 12.9498 9.93077 12.7659 10.2967 12.666C10.4681 12.6353 10.6417 12.6196 10.8167 12.6196C11.0591 12.6204 11.3008 12.6474 11.5374 12.7003C11.6267 12.7217 11.7181 12.7339 11.8088 12.7374H11.8245C11.8683 12.7411 11.9117 12.7278 11.946 12.7003C11.9817 12.6716 12.006 12.631 12.0145 12.586C12.0426 12.4819 12.0669 12.3768 12.0874 12.271C12.1395 12.0167 12.1781 11.861 12.2674 11.846C12.486 11.8103 12.6845 11.7703 12.8617 11.7274C12.9381 11.7089 13.0103 11.6889 13.0788 11.6696C13.3288 11.596 13.5267 11.5146 13.6681 11.4253C13.7114 11.3975 13.7527 11.3667 13.7917 11.3331C13.8417 11.2904 13.8815 11.2369 13.9081 11.1767V11.1753Z" fill="#A6A6A6"/>
</svg>
