<svg width="19" height="15" viewBox="0 0 19 15" fill="none" xmlns="http://www.w3.org/2000/svg">
<path d="M19 1.77679C18.4732 2.5417 17.8255 3.19368 17.0568 3.73279C17.0568 3.87741 17.0655 4.04091 17.0655 4.22312C17.0655 5.23588 16.91 6.24979 16.6077 7.26503C16.3054 8.28018 15.8391 9.25191 15.2173 10.1801C14.5955 11.1084 13.8441 11.9307 12.9805 12.6472C12.1255 13.3636 11.0805 13.9348 9.87141 14.3609C8.66232 14.787 7.35822 15 5.9764 15C3.80867 15 1.82227 14.4326 0 13.2976C0.319545 13.3325 0.630417 13.35 0.932689 13.35C2.73769 13.35 4.35277 12.8091 5.76914 11.7274C4.93141 11.7124 4.17141 11.4604 3.50641 10.9713C2.84141 10.4822 2.38361 9.85721 2.13316 9.09644C2.38361 9.14232 2.62541 9.16526 2.86723 9.16526C3.21268 9.16526 3.55819 9.12123 3.89501 9.03309C2.99683 8.85812 2.24549 8.42285 1.65822 7.72747C1.06231 7.03209 0.768649 6.2295 0.768649 5.31962V5.27276C1.32138 5.56976 1.90868 5.72771 2.5305 5.74668C1.99505 5.40159 1.58042 4.95159 1.26088 4.39668C0.949966 3.84176 0.794583 3.24124 0.794583 2.59518C0.794583 1.91374 0.975934 1.27915 1.32139 0.691501C2.2973 1.85762 3.48911 2.78956 4.87957 3.48741C6.27002 4.18527 7.76405 4.57279 9.35314 4.65009C9.29269 4.37471 9.25816 4.08724 9.25816 3.78785C9.25816 2.74235 9.63822 1.84968 10.3982 1.10982C11.1582 0.36997 12.0736 0 13.1532 0C14.2759 0 15.2259 0.398559 15.9946 1.19568C16.8755 1.02609 17.7046 0.719295 18.4732 0.275471C18.1796 1.18129 17.6096 1.88021 16.7632 2.37194C17.5405 2.28221 18.2832 2.08385 19 1.77679Z" fill="#A6A6A6"/>
</svg>
