<svg width="19" height="15" viewBox="0 0 19 15" fill="none" xmlns="http://www.w3.org/2000/svg">
<path d="M19 7.43536C19 7.38458 19 7.32687 18.9979 7.25993C18.9958 7.07295 18.9915 6.86288 18.9873 6.63897C18.9703 5.99492 18.9406 5.35318 18.894 4.74838C18.8304 3.91505 18.7371 3.22022 18.6098 2.69852C18.4756 2.15408 18.2124 1.65755 17.8466 1.25853C17.4808 0.859521 17.0252 0.572013 16.5253 0.424746C15.9252 0.249307 14.7504 0.140812 13.0964 0.0738688C12.3097 0.0415512 11.4679 0.0207755 10.626 0.00923347C10.3312 0.00461666 10.0577 0.0023084 9.81172 0H9.18828C8.9423 0.0023084 8.66875 0.00461666 8.37399 0.00923347C7.53214 0.0207755 6.69029 0.0415512 5.90357 0.0738688C4.24955 0.143121 3.07266 0.251616 2.47466 0.424746C1.97464 0.571651 1.51887 0.859038 1.15303 1.25811C0.787183 1.65717 0.524112 2.15391 0.390179 2.69852C0.260826 3.22022 0.169643 3.91505 0.106027 4.74838C0.059375 5.35318 0.0296875 5.99492 0.0127232 6.63897C0.00636157 6.86288 0.00424104 7.07295 0.0021205 7.25993C0.0021205 7.32687 0 7.38458 0 7.43536V7.56463C0 7.61542 -3.23884e-08 7.67313 0.0021205 7.74007C0.00424104 7.92705 0.00848211 8.13712 0.0127232 8.36103C0.0296875 9.00508 0.059375 9.64681 0.106027 10.2516C0.169643 11.0849 0.262946 11.7798 0.390179 12.3015C0.661607 13.4072 1.45893 14.2798 2.47466 14.5753C3.07266 14.7507 4.24955 14.8592 5.90357 14.9261C6.69029 14.9584 7.53214 14.9792 8.37399 14.9908C8.66875 14.9954 8.9423 14.9977 9.18828 15H9.81172C10.0577 14.9977 10.3312 14.9954 10.626 14.9908C11.4679 14.9792 12.3097 14.9584 13.0964 14.9261C14.7504 14.8569 15.9273 14.7484 16.5253 14.5753C17.5411 14.2798 18.3384 13.4095 18.6098 12.3015C18.7392 11.7798 18.8304 11.0849 18.894 10.2516C18.9406 9.64681 18.9703 9.00508 18.9873 8.36103C18.9936 8.13712 18.9958 7.92705 18.9979 7.74007C18.9979 7.67313 19 7.61542 19 7.56463V7.43536ZM17.4732 7.5554C17.4732 7.60388 17.4732 7.65697 17.4711 7.7193C17.469 7.89935 17.4647 8.09788 17.4605 8.31256C17.4456 8.92659 17.416 9.54063 17.3714 10.1108C17.3142 10.8541 17.2336 11.4635 17.1339 11.8721C17.0025 12.4054 16.6165 12.8278 16.1288 12.9686C15.6835 13.0979 14.5617 13.2018 13.0371 13.2641C12.2652 13.2964 11.4339 13.3172 10.6048 13.3287C10.3143 13.3333 10.045 13.3356 9.80324 13.3356H9.19676L8.3952 13.3287C7.56607 13.3172 6.73694 13.2964 5.96295 13.2641C4.43828 13.1994 3.3144 13.0979 2.87121 12.9686C2.38348 12.8255 1.99754 12.4054 1.86607 11.8721C1.76641 11.4635 1.68583 10.8541 1.62857 10.1108C1.58404 9.54063 1.55647 8.92659 1.53951 8.31256C1.53315 8.09788 1.53103 7.89704 1.52891 7.7193C1.52891 7.65697 1.52679 7.60157 1.52679 7.5554V7.4446C1.52679 7.39612 1.52679 7.34303 1.52891 7.2807C1.53103 7.10065 1.53527 6.90212 1.53951 6.68744C1.55435 6.07341 1.58404 5.45937 1.62857 4.8892C1.68583 4.14589 1.76641 3.53647 1.86607 3.12789C1.99754 2.59464 2.38348 2.17221 2.87121 2.03139C3.31652 1.90212 4.43828 1.79825 5.96295 1.73592C6.73482 1.7036 7.56607 1.68283 8.3952 1.67128C8.68571 1.66667 8.95502 1.66436 9.19676 1.66436H9.80324L10.6048 1.67128C11.4339 1.68283 12.2631 1.7036 13.0371 1.73592C14.5617 1.80055 15.6856 1.90212 16.1288 2.03139C16.6165 2.17452 17.0025 2.59464 17.1339 3.12789C17.2336 3.53647 17.3142 4.14589 17.3714 4.8892C17.416 5.45937 17.4435 6.07341 17.4605 6.68744C17.4669 6.90212 17.469 7.10295 17.4711 7.2807C17.4711 7.34303 17.4732 7.39843 17.4732 7.4446V7.5554ZM7.61272 10.5933L12.5324 7.47692L7.61272 4.40674V10.5933Z" fill="#A6A6A6"/>
</svg>
